<?xml version="1.0" encoding="UTF-8" standalone="no"?>
<!DOCTYPE svg PUBLIC "-//W3C//DTD SVG 1.1//EN"
 "http://www.w3.org/Graphics/SVG/1.1/DTD/svg11.dtd">
<!-- Generated by graphviz version 2.43.0 (0)
 -->
<!-- Title:   Pages: 1 -->
<svg width="531pt" height="1519pt"
 viewBox="0.00 0.00 531.19 1518.50" xmlns="http://www.w3.org/2000/svg" xmlns:xlink="http://www.w3.org/1999/xlink">
<g id="graph0" class="graph" transform="scale(1 1) rotate(0) translate(4 1514.5)">
<title> </title>
<g id="a_graph0"><a xlink:title=" ">
<polygon fill="white" stroke="transparent" points="-4,4 -4,-1514.5 527.19,-1514.5 527.19,4 -4,4"/>
</a>
</g>
<g id="clust1" class="cluster">
<title>cluster0</title>
<g id="a_clust1"><a xlink:title=" ">
<path fill="#0072b9" fill-opacity="0.133333" stroke="#0072b9" d="M20,-571.5C20,-571.5 496.69,-571.5 496.69,-571.5 502.69,-571.5 508.69,-577.5 508.69,-583.5 508.69,-583.5 508.69,-781.5 508.69,-781.5 508.69,-787.5 502.69,-793.5 496.69,-793.5 496.69,-793.5 20,-793.5 20,-793.5 14,-793.5 8,-787.5 8,-781.5 8,-781.5 8,-583.5 8,-583.5 8,-577.5 14,-571.5 20,-571.5"/>
<text text-anchor="start" x="216.85" y="-779.3" font-family="Helvetica,Arial,sans-serif" font-weight="bold" font-size="14.00">repeated 20x</text>
</a>
</g>
</g>
<!-- kernel0 -->
<g id="node1" class="node">
<title>kernel0</title>
<g id="a_node1"><a xlink:title="/home/erie_lab/Documents/kxz365/Github_repos/3D&#45;DiffXPBD&#45;Warp/utils/DiffXPBD.py:597 (update_gamma_from_youngs)">
<polygon fill="#888888" stroke="transparent" points="247.69,-450.5 247.69,-560.5 505.69,-560.5 505.69,-450.5 247.69,-450.5"/>
<polygon fill="#ffffff" fill-opacity="0.666667" stroke="transparent" points="249.69,-533.5 249.69,-558.5 503.69,-558.5 503.69,-533.5 249.69,-533.5"/>
<polygon fill="none" stroke="black" points="249.69,-533.5 249.69,-558.5 503.69,-558.5 503.69,-533.5 249.69,-533.5"/>
<text text-anchor="start" x="255.69" y="-543.3" font-family="Helvetica,Arial,sans-serif" font-weight="bold" font-size="14.00">update_gamma_from_youngs_kernel</text>
<polygon fill="#bbbbbb" stroke="transparent" points="249.69,-506.5 249.69,-531.5 416.69,-531.5 416.69,-506.5 249.69,-506.5"/>
<polygon fill="none" stroke="black" points="249.69,-506.5 249.69,-531.5 416.69,-531.5 416.69,-506.5 249.69,-506.5"/>
<text text-anchor="start" x="254.69" y="-515.3" font-family="Helvetica,Arial,sans-serif" font-size="14.00">youngs</text>
<polygon fill="#bbbbbb" stroke="transparent" points="249.69,-479.5 249.69,-504.5 416.69,-504.5 416.69,-479.5 249.69,-479.5"/>
<polygon fill="none" stroke="black" points="249.69,-479.5 249.69,-504.5 416.69,-504.5 416.69,-479.5 249.69,-479.5"/>
<text text-anchor="start" x="254.69" y="-488.3" font-family="Helvetica,Arial,sans-serif" font-size="14.00">gamma</text>
<polygon fill="#bbbbbb" stroke="transparent" points="249.69,-452.5 249.69,-477.5 416.69,-477.5 416.69,-452.5 249.69,-452.5"/>
<polygon fill="none" stroke="black" points="249.69,-452.5 249.69,-477.5 416.69,-477.5 416.69,-452.5 249.69,-452.5"/>
<text text-anchor="start" x="254.69" y="-461.3" font-family="Helvetica,Arial,sans-serif" font-size="14.00">poisson_ratio</text>
</a>
</g>
</g>
<!-- arr12918766080 -->
<g id="node2" class="node">
<title>arr12918766080</title>
<g id="a_node2"><a xlink:title="Array E / ptr=12918766080, shape=(1,), dtype=warp._src.types.float32, requires_grad=True">
<ellipse fill="#76b900" stroke="black" cx="105.1" cy="-396.5" rx="12.96" ry="12.04"/>
<text text-anchor="middle" x="105.1" y="-392.8" font-family="Helvetica,Arial,sans-serif" font-size="14.00">E</text>
</a>
</g>
</g>
<!-- arr12918766080&#45;&gt;kernel0 -->
<g id="edge1" class="edge">
<title>arr12918766080&#45;&gt;kernel0:in_0</title>
<g id="a_edge1"><a xlink:title=" ">
<path fill="none" stroke="black" d="M111.6,-406.99C127.23,-435.22 174.85,-511.23 238.36,-518.88"/>
<polygon fill="black" stroke="black" points="238.5,-522.39 248.69,-519.5 238.92,-515.4 238.5,-522.39"/>
</a>
</g>
</g>
<!-- kernel1 -->
<g id="node3" class="node">
<title>kernel1</title>
<g id="a_node3"><a xlink:title="/home/erie_lab/Documents/kxz365/Github_repos/3D&#45;DiffXPBD&#45;Warp/utils/DiffXPBD.py:600 (update_b_inv_from_youngs)">
<polygon fill="#888888" stroke="transparent" points="254.19,-212.5 254.19,-430.5 499.19,-430.5 499.19,-212.5 254.19,-212.5"/>
<polygon fill="#ffffff" fill-opacity="0.666667" stroke="transparent" points="256.69,-403.5 256.69,-428.5 497.69,-428.5 497.69,-403.5 256.69,-403.5"/>
<polygon fill="none" stroke="black" points="256.69,-403.5 256.69,-428.5 497.69,-428.5 497.69,-403.5 256.69,-403.5"/>
<text text-anchor="start" x="262.69" y="-413.3" font-family="Helvetica,Arial,sans-serif" font-weight="bold" font-size="14.00">update_b_inv_from_youngs_kernel</text>
<polygon fill="#bbbbbb" stroke="transparent" points="256.69,-376.5 256.69,-401.5 417.69,-401.5 417.69,-376.5 256.69,-376.5"/>
<polygon fill="none" stroke="black" points="256.69,-376.5 256.69,-401.5 417.69,-401.5 417.69,-376.5 256.69,-376.5"/>
<text text-anchor="start" x="261.69" y="-385.3" font-family="Helvetica,Arial,sans-serif" font-size="14.00">youngs</text>
<polygon fill="#bbbbbb" stroke="transparent" points="256.69,-349.5 256.69,-374.5 417.69,-374.5 417.69,-349.5 256.69,-349.5"/>
<polygon fill="none" stroke="black" points="256.69,-349.5 256.69,-374.5 417.69,-374.5 417.69,-349.5 256.69,-349.5"/>
<text text-anchor="start" x="261.69" y="-358.3" font-family="Helvetica,Arial,sans-serif" font-size="14.00">fixed_mask</text>
<polygon fill="#bbbbbb" stroke="transparent" points="256.69,-322.5 256.69,-347.5 417.69,-347.5 417.69,-322.5 256.69,-322.5"/>
<polygon fill="none" stroke="black" points="256.69,-322.5 256.69,-347.5 417.69,-347.5 417.69,-322.5 256.69,-322.5"/>
<text text-anchor="start" x="261.69" y="-331.3" font-family="Helvetica,Arial,sans-serif" font-size="14.00">b_inv</text>
<polygon fill="#bbbbbb" stroke="transparent" points="256.69,-295.5 256.69,-320.5 417.69,-320.5 417.69,-295.5 256.69,-295.5"/>
<polygon fill="none" stroke="black" points="256.69,-295.5 256.69,-320.5 417.69,-320.5 417.69,-295.5 256.69,-295.5"/>
<text text-anchor="start" x="261.69" y="-304.3" font-family="Helvetica,Arial,sans-serif" font-size="14.00">poisson_ratio</text>
<polygon fill="#bbbbbb" stroke="transparent" points="256.69,-268.5 256.69,-293.5 417.69,-293.5 417.69,-268.5 256.69,-268.5"/>
<polygon fill="none" stroke="black" points="256.69,-268.5 256.69,-293.5 417.69,-293.5 417.69,-268.5 256.69,-268.5"/>
<text text-anchor="start" x="261.69" y="-277.3" font-family="Helvetica,Arial,sans-serif" font-size="14.00">dt</text>
<polygon fill="#bbbbbb" stroke="transparent" points="256.69,-241.5 256.69,-266.5 417.69,-266.5 417.69,-241.5 256.69,-241.5"/>
<polygon fill="none" stroke="black" points="256.69,-241.5 256.69,-266.5 417.69,-266.5 417.69,-241.5 256.69,-241.5"/>
<text text-anchor="start" x="261.69" y="-250.3" font-family="Helvetica,Arial,sans-serif" font-size="14.00">avg_edge</text>
<polygon fill="#bbbbbb" stroke="transparent" points="256.69,-214.5 256.69,-239.5 417.69,-239.5 417.69,-214.5 256.69,-214.5"/>
<polygon fill="none" stroke="black" points="256.69,-214.5 256.69,-239.5 417.69,-239.5 417.69,-214.5 256.69,-214.5"/>
<text text-anchor="start" x="261.69" y="-223.3" font-family="Helvetica,Arial,sans-serif" font-size="14.00">selected_vid</text>
</a>
</g>
</g>
<!-- arr12918766080&#45;&gt;kernel1 -->
<g id="edge2" class="edge">
<title>arr12918766080&#45;&gt;kernel1:in_0</title>
<g id="a_edge2"><a xlink:title=" ">
<path fill="none" stroke="black" d="M118.11,-395.56C141.86,-393.77 196.76,-390.03 245.68,-389.55"/>
<polygon fill="black" stroke="black" points="245.71,-393.05 255.69,-389.5 245.67,-386.05 245.71,-393.05"/>
</a>
</g>
</g>
<!-- kernel2 -->
<g id="node5" class="node">
<title>kernel2</title>
<g id="a_node5"><a xlink:title="/home/erie_lab/Documents/kxz365/Github_repos/3D&#45;DiffXPBD&#45;Warp/utils/DiffXPBD.py:608 (update_compliance_from_youngs)">
<polygon fill="#888888" stroke="transparent" points="234.19,-1 234.19,-192 519.19,-192 519.19,-1 234.19,-1"/>
<polygon fill="#ffffff" fill-opacity="0.666667" stroke="transparent" points="236.69,-164.5 236.69,-189.5 517.69,-189.5 517.69,-164.5 236.69,-164.5"/>
<polygon fill="none" stroke="black" points="236.69,-164.5 236.69,-189.5 517.69,-189.5 517.69,-164.5 236.69,-164.5"/>
<text text-anchor="start" x="242.69" y="-174.3" font-family="Helvetica,Arial,sans-serif" font-weight="bold" font-size="14.00">update_compliance_from_youngs_kernel</text>
<polygon fill="#bbbbbb" stroke="transparent" points="236.69,-137.5 236.69,-162.5 448.69,-162.5 448.69,-137.5 236.69,-137.5"/>
<polygon fill="none" stroke="black" points="236.69,-137.5 236.69,-162.5 448.69,-162.5 448.69,-137.5 236.69,-137.5"/>
<text text-anchor="start" x="241.69" y="-146.3" font-family="Helvetica,Arial,sans-serif" font-size="14.00">youngs</text>
<polygon fill="#bbbbbb" stroke="transparent" points="236.69,-110.5 236.69,-135.5 448.69,-135.5 448.69,-110.5 236.69,-110.5"/>
<polygon fill="none" stroke="black" points="236.69,-110.5 236.69,-135.5 448.69,-135.5 448.69,-110.5 236.69,-110.5"/>
<text text-anchor="start" x="241.69" y="-119.3" font-family="Helvetica,Arial,sans-serif" font-size="14.00">tet_volume</text>
<polygon fill="#bbbbbb" stroke="transparent" points="236.69,-83.5 236.69,-108.5 448.69,-108.5 448.69,-83.5 236.69,-83.5"/>
<polygon fill="none" stroke="black" points="236.69,-83.5 236.69,-108.5 448.69,-108.5 448.69,-83.5 236.69,-83.5"/>
<text text-anchor="start" x="241.69" y="-92.3" font-family="Helvetica,Arial,sans-serif" font-size="14.00">compliance</text>
<polygon fill="#bbbbbb" stroke="transparent" points="236.69,-56.5 236.69,-81.5 448.69,-81.5 448.69,-56.5 236.69,-56.5"/>
<polygon fill="none" stroke="black" points="236.69,-56.5 236.69,-81.5 448.69,-81.5 448.69,-56.5 236.69,-56.5"/>
<text text-anchor="start" x="241.69" y="-65.3" font-family="Helvetica,Arial,sans-serif" font-size="14.00">poisson_ratio</text>
<polygon fill="#bbbbbb" stroke="transparent" points="236.69,-29.5 236.69,-54.5 448.69,-54.5 448.69,-29.5 236.69,-29.5"/>
<polygon fill="none" stroke="black" points="236.69,-29.5 236.69,-54.5 448.69,-54.5 448.69,-29.5 236.69,-29.5"/>
<text text-anchor="start" x="241.69" y="-38.3" font-family="Helvetica,Arial,sans-serif" font-size="14.00">dt</text>
<polygon fill="#bbbbbb" stroke="transparent" points="236.69,-2.5 236.69,-27.5 448.69,-27.5 448.69,-2.5 236.69,-2.5"/>
<polygon fill="none" stroke="black" points="236.69,-2.5 236.69,-27.5 448.69,-27.5 448.69,-2.5 236.69,-2.5"/>
<text text-anchor="start" x="241.69" y="-11.3" font-family="Helvetica,Arial,sans-serif" font-size="14.00">compliance_modulation</text>
</a>
</g>
</g>
<!-- arr12918766080&#45;&gt;kernel2 -->
<g id="edge4" class="edge">
<title>arr12918766080&#45;&gt;kernel2:in_0</title>
<g id="a_edge4"><a xlink:title=" ">
<path fill="none" stroke="black" d="M118.04,-397.42C137.07,-398.17 174.16,-396.59 194.19,-375.5 261.68,-304.43 143.15,-161.33 225.56,-151.08"/>
<polygon fill="black" stroke="black" points="225.91,-154.57 235.69,-150.5 225.51,-147.58 225.91,-154.57"/>
</a>
</g>
</g>
<!-- arr12918760960 -->
<g id="node4" class="node">
<title>arr12918760960</title>
<g id="a_node4"><a xlink:title="Array fixed_mask / ptr=12918760960, shape=(522,), dtype=warp._src.types.int32, requires_grad=False">
<ellipse fill="lightgray" stroke="black" cx="105.1" cy="-354.5" rx="55.31" ry="12.04"/>
<text text-anchor="middle" x="105.1" y="-350.8" font-family="Helvetica,Arial,sans-serif" font-size="14.00">fixed_mask</text>
</a>
</g>
</g>
<!-- arr12918760960&#45;&gt;kernel1 -->
<g id="edge3" class="edge">
<title>arr12918760960&#45;&gt;kernel1:in_1</title>
<g id="a_edge3"><a xlink:title=" ">
<path fill="none" stroke="black" d="M157.29,-358.59C183.24,-360.36 215.54,-362.11 245.6,-362.44"/>
<polygon fill="black" stroke="black" points="245.67,-365.94 255.69,-362.5 245.71,-358.94 245.67,-365.94"/>
</a>
</g>
</g>
<!-- arr12918641152 -->
<g id="node6" class="node">
<title>arr12918641152</title>
<g id="a_node6"><a xlink:title="Array tet_volume / ptr=12918641152, shape=(1273,), dtype=warp._src.types.float32, requires_grad=False">
<ellipse fill="lightgray" stroke="black" cx="105.1" cy="-123.5" rx="53.07" ry="12.04"/>
<text text-anchor="middle" x="105.1" y="-119.8" font-family="Helvetica,Arial,sans-serif" font-size="14.00">tet_volume</text>
</a>
</g>
</g>
<!-- arr12918641152&#45;&gt;kernel2 -->
<g id="edge5" class="edge">
<title>arr12918641152&#45;&gt;kernel2:in_1</title>
<g id="a_edge5"><a xlink:title=" ">
<path fill="none" stroke="black" d="M158.43,-123.5C178.9,-123.5 202.85,-123.5 225.43,-123.5"/>
<polygon fill="black" stroke="black" points="225.69,-127 235.69,-123.5 225.69,-120 225.69,-127"/>
</a>
</g>
</g>
<!-- kernel3 -->
<g id="node7" class="node">
<title>kernel3</title>
<g id="a_node7"><a xlink:title="/home/erie_lab/Documents/kxz365/Github_repos/3D&#45;DiffXPBD&#45;Warp/utils/DiffXPBD.py:616 (update_external_force)">
<polygon fill="#888888" stroke="transparent" points="272.19,-1166 272.19,-1303 481.19,-1303 481.19,-1166 272.19,-1166"/>
<polygon fill="#ffffff" fill-opacity="0.666667" stroke="transparent" points="274.69,-1275.5 274.69,-1300.5 479.69,-1300.5 479.69,-1275.5 274.69,-1275.5"/>
<polygon fill="none" stroke="black" points="274.69,-1275.5 274.69,-1300.5 479.69,-1300.5 479.69,-1275.5 274.69,-1275.5"/>
<text text-anchor="start" x="280.69" y="-1285.3" font-family="Helvetica,Arial,sans-serif" font-weight="bold" font-size="14.00">update_external_force_kernel</text>
<polygon fill="#bbbbbb" stroke="transparent" points="274.69,-1248.5 274.69,-1273.5 453.69,-1273.5 453.69,-1248.5 274.69,-1248.5"/>
<polygon fill="none" stroke="black" points="274.69,-1248.5 274.69,-1273.5 453.69,-1273.5 453.69,-1248.5 274.69,-1248.5"/>
<text text-anchor="start" x="279.69" y="-1257.3" font-family="Helvetica,Arial,sans-serif" font-size="14.00">gravity_force</text>
<polygon fill="#bbbbbb" stroke="transparent" points="274.69,-1221.5 274.69,-1246.5 453.69,-1246.5 453.69,-1221.5 274.69,-1221.5"/>
<polygon fill="none" stroke="black" points="274.69,-1221.5 274.69,-1246.5 453.69,-1246.5 453.69,-1221.5 274.69,-1221.5"/>
<text text-anchor="start" x="279.69" y="-1230.3" font-family="Helvetica,Arial,sans-serif" font-size="14.00">applied_mask</text>
<polygon fill="#bbbbbb" stroke="transparent" points="274.69,-1194.5 274.69,-1219.5 453.69,-1219.5 453.69,-1194.5 274.69,-1194.5"/>
<polygon fill="none" stroke="black" points="274.69,-1194.5 274.69,-1219.5 453.69,-1219.5 453.69,-1194.5 274.69,-1194.5"/>
<text text-anchor="start" x="279.69" y="-1203.3" font-family="Helvetica,Arial,sans-serif" font-size="14.00">applied_force_per_vertex</text>
<polygon fill="#bbbbbb" stroke="transparent" points="274.69,-1167.5 274.69,-1192.5 453.69,-1192.5 453.69,-1167.5 274.69,-1167.5"/>
<polygon fill="none" stroke="black" points="274.69,-1167.5 274.69,-1192.5 453.69,-1192.5 453.69,-1167.5 274.69,-1167.5"/>
<text text-anchor="start" x="279.69" y="-1176.3" font-family="Helvetica,Arial,sans-serif" font-size="14.00">external_force</text>
</a>
</g>
</g>
<!-- arr12918816256 -->
<g id="node8" class="node">
<title>arr12918816256</title>
<g id="a_node8"><a xlink:title="Array gravity_force / ptr=12918816256, shape=(522,), dtype=warp._src.types.vec3f, requires_grad=False">
<ellipse fill="lightgray" stroke="black" cx="105.1" cy="-1275.5" rx="60.62" ry="12.04"/>
<text text-anchor="middle" x="105.1" y="-1271.8" font-family="Helvetica,Arial,sans-serif" font-size="14.00">gravity_force</text>
</a>
</g>
</g>
<!-- arr12918816256&#45;&gt;kernel3 -->
<g id="edge6" class="edge">
<title>arr12918816256&#45;&gt;kernel3:in_0</title>
<g id="a_edge6"><a xlink:title=" ">
<path fill="none" stroke="black" d="M156.61,-1269.07C186.97,-1265.71 226.72,-1262.17 263.43,-1261.58"/>
<polygon fill="black" stroke="black" points="263.72,-1265.08 273.69,-1261.5 263.66,-1258.08 263.72,-1265.08"/>
</a>
</g>
</g>
<!-- arr12918763520 -->
<g id="node9" class="node">
<title>arr12918763520</title>
<g id="a_node9"><a xlink:title="Array applied_mask / ptr=12918763520, shape=(522,), dtype=warp._src.types.int32, requires_grad=False">
<ellipse fill="lightgray" stroke="black" cx="105.1" cy="-1233.5" rx="65.52" ry="12.04"/>
<text text-anchor="middle" x="105.1" y="-1229.8" font-family="Helvetica,Arial,sans-serif" font-size="14.00">applied_mask</text>
</a>
</g>
</g>
<!-- arr12918763520&#45;&gt;kernel3 -->
<g id="edge7" class="edge">
<title>arr12918763520&#45;&gt;kernel3:in_1</title>
<g id="a_edge7"><a xlink:title=" ">
<path fill="none" stroke="black" d="M170.96,-1233.5C199,-1233.5 232.48,-1233.5 263.66,-1233.5"/>
<polygon fill="black" stroke="black" points="263.69,-1237 273.69,-1233.5 263.69,-1230 263.69,-1237"/>
</a>
</g>
</g>
<!-- arr12918767104 -->
<g id="node10" class="node">
<title>arr12918767104</title>
<g id="a_node10"><a xlink:title="Array F / ptr=12918767104, shape=(1,), dtype=warp._src.types.vec3f, requires_grad=True">
<ellipse fill="#76b900" stroke="black" cx="105.1" cy="-1191.5" rx="12.04" ry="12.04"/>
<text text-anchor="middle" x="105.1" y="-1187.8" font-family="Helvetica,Arial,sans-serif" font-size="14.00">F</text>
</a>
</g>
</g>
<!-- arr12918767104&#45;&gt;kernel3 -->
<g id="edge8" class="edge">
<title>arr12918767104&#45;&gt;kernel3:in_2</title>
<g id="a_edge8"><a xlink:title=" ">
<path fill="none" stroke="black" d="M117.05,-1193.16C142.24,-1196.85 206.53,-1205.45 263.52,-1206.41"/>
<polygon fill="black" stroke="black" points="263.66,-1209.91 273.69,-1206.5 263.72,-1202.91 263.66,-1209.91"/>
</a>
</g>
</g>
<!-- arr12918822912 -->
<g id="node11" class="node">
<title>arr12918822912</title>
<g id="a_node11"><a xlink:title="Array external_force / ptr=12918822912, shape=(522,), dtype=warp._src.types.vec3f, requires_grad=True">
<ellipse fill="#76b900" stroke="black" cx="105.1" cy="-1126.5" rx="66.44" ry="12.04"/>
<text text-anchor="middle" x="105.1" y="-1122.8" font-family="Helvetica,Arial,sans-serif" font-size="14.00">external_force</text>
</a>
</g>
</g>
<!-- arr12918822912&#45;&gt;kernel3 -->
<g id="edge9" class="edge">
<title>arr12918822912&#45;&gt;kernel3:in_3</title>
<g id="a_edge9"><a xlink:title=" ">
<path fill="none" stroke="black" d="M127.37,-1137.87C156.67,-1152.5 211.71,-1176.38 263.69,-1179.22"/>
<polygon fill="black" stroke="black" points="263.6,-1182.72 273.69,-1179.5 263.79,-1175.72 263.6,-1182.72"/>
</a>
</g>
</g>
<!-- kernel4 -->
<g id="node12" class="node">
<title>kernel4</title>
<g id="a_node12"><a xlink:title="/home/erie_lab/Documents/kxz365/Github_repos/3D&#45;DiffXPBD&#45;Warp/utils/DiffXPBD.py:624 (update_external_part_from_youngs)">
<polygon fill="#888888" stroke="transparent" points="235.69,-1009 235.69,-1146 517.69,-1146 517.69,-1009 235.69,-1009"/>
<polygon fill="#ffffff" fill-opacity="0.666667" stroke="transparent" points="237.69,-1118.5 237.69,-1143.5 515.69,-1143.5 515.69,-1118.5 237.69,-1118.5"/>
<polygon fill="none" stroke="black" points="237.69,-1118.5 237.69,-1143.5 515.69,-1143.5 515.69,-1118.5 237.69,-1118.5"/>
<text text-anchor="start" x="243.69" y="-1128.3" font-family="Helvetica,Arial,sans-serif" font-weight="bold" font-size="14.00">update_external_part_from_b_inv_kernel</text>
<polygon fill="#bbbbbb" stroke="transparent" points="237.69,-1091.5 237.69,-1116.5 419.69,-1116.5 419.69,-1091.5 237.69,-1091.5"/>
<polygon fill="none" stroke="black" points="237.69,-1091.5 237.69,-1116.5 419.69,-1116.5 419.69,-1091.5 237.69,-1091.5"/>
<text text-anchor="start" x="242.69" y="-1100.3" font-family="Helvetica,Arial,sans-serif" font-size="14.00">external_force</text>
<polygon fill="#bbbbbb" stroke="transparent" points="237.69,-1064.5 237.69,-1089.5 419.69,-1089.5 419.69,-1064.5 237.69,-1064.5"/>
<polygon fill="none" stroke="black" points="237.69,-1064.5 237.69,-1089.5 419.69,-1089.5 419.69,-1064.5 237.69,-1064.5"/>
<text text-anchor="start" x="242.69" y="-1073.3" font-family="Helvetica,Arial,sans-serif" font-size="14.00">b_inv</text>
<polygon fill="#bbbbbb" stroke="transparent" points="237.69,-1037.5 237.69,-1062.5 419.69,-1062.5 419.69,-1037.5 237.69,-1037.5"/>
<polygon fill="none" stroke="black" points="237.69,-1037.5 237.69,-1062.5 419.69,-1062.5 419.69,-1037.5 237.69,-1037.5"/>
<text text-anchor="start" x="242.69" y="-1046.3" font-family="Helvetica,Arial,sans-serif" font-size="14.00">external_part</text>
<polygon fill="#bbbbbb" stroke="transparent" points="237.69,-1010.5 237.69,-1035.5 419.69,-1035.5 419.69,-1010.5 237.69,-1010.5"/>
<polygon fill="none" stroke="black" points="237.69,-1010.5 237.69,-1035.5 419.69,-1035.5 419.69,-1010.5 237.69,-1010.5"/>
<text text-anchor="start" x="242.69" y="-1019.3" font-family="Helvetica,Arial,sans-serif" font-size="14.00">dt</text>
</a>
</g>
</g>
<!-- arr12918822912&#45;&gt;kernel4 -->
<g id="edge10" class="edge">
<title>arr12918822912&#45;&gt;kernel4:in_0</title>
<g id="a_edge10"><a xlink:title=" ">
<path fill="none" stroke="black" d="M143.82,-1116.72C167.01,-1111.47 197.73,-1105.83 226.58,-1104.7"/>
<polygon fill="black" stroke="black" points="226.76,-1108.2 236.69,-1104.5 226.62,-1101.2 226.76,-1108.2"/>
</a>
</g>
</g>
<!-- arr12918836224 -->
<g id="node13" class="node">
<title>arr12918836224</title>
<g id="a_node13"><a xlink:title="Array external_part / ptr=12918836224, shape=(522,), dtype=warp._src.types.vec3f, requires_grad=True">
<ellipse fill="#76b900" stroke="black" cx="105.1" cy="-919.5" rx="62.45" ry="12.04"/>
<text text-anchor="middle" x="105.1" y="-915.8" font-family="Helvetica,Arial,sans-serif" font-size="14.00">external_part</text>
</a>
</g>
</g>
<!-- arr12918836224&#45;&gt;kernel4 -->
<g id="edge11" class="edge">
<title>arr12918836224&#45;&gt;kernel4:in_2</title>
<g id="a_edge11"><a xlink:title=" ">
<path fill="none" stroke="black" d="M162.14,-924.41C173.75,-927.61 185.18,-932.65 194.19,-940.5 230.49,-972.11 191.44,-1038.61 226.7,-1048.31"/>
<polygon fill="black" stroke="black" points="226.35,-1051.79 236.69,-1049.5 227.17,-1044.84 226.35,-1051.79"/>
</a>
</g>
</g>
<!-- kernel5 -->
<g id="node14" class="node">
<title>kernel5</title>
<g id="a_node14"><a xlink:title="/home/erie_lab/Documents/kxz365/Github_repos/3D&#45;DiffXPBD&#45;Warp/utils/DiffXPBD.py:686 (predictor_step_tape)">
<polygon fill="#888888" stroke="transparent" points="280.19,-878.5 280.19,-988.5 473.19,-988.5 473.19,-878.5 280.19,-878.5"/>
<polygon fill="#ffffff" fill-opacity="0.666667" stroke="transparent" points="282.69,-961.5 282.69,-986.5 471.69,-986.5 471.69,-961.5 282.69,-961.5"/>
<polygon fill="none" stroke="black" points="282.69,-961.5 282.69,-986.5 471.69,-986.5 471.69,-961.5 282.69,-961.5"/>
<text text-anchor="start" x="288.69" y="-971.3" font-family="Helvetica,Arial,sans-serif" font-weight="bold" font-size="14.00">predictor_step_tape_kernel</text>
<polygon fill="#bbbbbb" stroke="transparent" points="282.69,-934.5 282.69,-959.5 416.69,-959.5 416.69,-934.5 282.69,-934.5"/>
<polygon fill="none" stroke="black" points="282.69,-934.5 282.69,-959.5 416.69,-959.5 416.69,-934.5 282.69,-934.5"/>
<text text-anchor="start" x="287.69" y="-943.3" font-family="Helvetica,Arial,sans-serif" font-size="14.00">x_state</text>
<polygon fill="#bbbbbb" stroke="transparent" points="282.69,-907.5 282.69,-932.5 416.69,-932.5 416.69,-907.5 282.69,-907.5"/>
<polygon fill="none" stroke="black" points="282.69,-907.5 282.69,-932.5 416.69,-932.5 416.69,-907.5 282.69,-907.5"/>
<text text-anchor="start" x="287.69" y="-916.3" font-family="Helvetica,Arial,sans-serif" font-size="14.00">external_part</text>
<polygon fill="#bbbbbb" stroke="transparent" points="282.69,-880.5 282.69,-905.5 416.69,-905.5 416.69,-880.5 282.69,-880.5"/>
<polygon fill="none" stroke="black" points="282.69,-880.5 282.69,-905.5 416.69,-905.5 416.69,-880.5 282.69,-880.5"/>
<text text-anchor="start" x="287.69" y="-889.3" font-family="Helvetica,Arial,sans-serif" font-size="14.00">x_stage0</text>
</a>
</g>
</g>
<!-- arr12918836224&#45;&gt;kernel5 -->
<g id="edge13" class="edge">
<title>arr12918836224&#45;&gt;kernel5:in_1</title>
<g id="a_edge13"><a xlink:title=" ">
<path fill="none" stroke="black" d="M167.45,-919.5C198.14,-919.5 236.16,-919.5 271.36,-919.5"/>
<polygon fill="black" stroke="black" points="271.69,-923 281.69,-919.5 271.69,-916 271.69,-923"/>
</a>
</g>
</g>
<!-- arr12918849536 -->
<g id="node15" class="node">
<title>arr12918849536</title>
<g id="a_node15"><a xlink:title="Array x_state / ptr=12918849536, shape=(522,), dtype=warp._src.types.vec3f, requires_grad=False">
<ellipse fill="lightgray" stroke="black" cx="105.1" cy="-961.5" rx="36.54" ry="12.04"/>
<text text-anchor="middle" x="105.1" y="-957.8" font-family="Helvetica,Arial,sans-serif" font-size="14.00">x_state</text>
</a>
</g>
</g>
<!-- arr12918849536&#45;&gt;kernel5 -->
<g id="edge12" class="edge">
<title>arr12918849536&#45;&gt;kernel5:in_0</title>
<g id="a_edge12"><a xlink:title=" ">
<path fill="none" stroke="black" d="M139.69,-957.22C172.58,-953.39 224.44,-948.26 271.43,-947.58"/>
<polygon fill="black" stroke="black" points="271.72,-951.07 281.69,-947.5 271.67,-944.07 271.72,-951.07"/>
</a>
</g>
</g>
<!-- arr12918938112 -->
<g id="node16" class="node">
<title>arr12918938112</title>
<g id="a_node16"><a xlink:title="Array x_stage0 / ptr=12918938112, shape=(522,), dtype=warp._src.types.vec3f, requires_grad=True">
<ellipse fill="#76b900" stroke="black" cx="105.1" cy="-633.5" rx="44.6" ry="12.04"/>
<text text-anchor="middle" x="105.1" y="-629.8" font-family="Helvetica,Arial,sans-serif" font-size="14.00">x_stage0</text>
</a>
</g>
</g>
<!-- arr12918938112&#45;&gt;kernel5 -->
<g id="edge14" class="edge">
<title>arr12918938112&#45;&gt;kernel5:in_2</title>
<g id="a_edge14"><a xlink:title=" ">
<path fill="none" stroke="black" d="M149.7,-634.68C165.79,-637.36 182.84,-643.24 194.19,-655.5 259.41,-725.96 172.01,-792.13 230.19,-868.5 243.28,-885.68 253.18,-891.03 271.58,-892.22"/>
<polygon fill="black" stroke="black" points="271.6,-895.72 281.69,-892.5 271.79,-888.72 271.6,-895.72"/>
</a>
</g>
</g>
<!-- kernel7 -->
<g id="node19" class="node">
<title>kernel7</title>
<g id="a_node19"><a xlink:title="/home/erie_lab/Documents/kxz365/Github_repos/3D&#45;DiffXPBD&#45;Warp/utils/ConstraintSolver.py:295 (solve_all_constraints_local)">
<text text-anchor="middle" x="376.69" y="-619.8" font-family="Helvetica,Arial,sans-serif" font-size="14.00">kernel7</text>
</a>
</g>
</g>
<!-- arr12918938112&#45;&gt;kernel7 -->
<g id="edge16" class="edge">
<title>arr12918938112&#45;&gt;kernel7:in_1</title>
<g id="a_edge16"><a xlink:title=" ">
<path fill="none" stroke="black" d="M149.41,-631.89C202.24,-629.93 290.58,-626.66 339.8,-624.83"/>
<polygon fill="black" stroke="black" points="340.11,-628.32 349.97,-624.45 339.85,-621.33 340.11,-628.32"/>
</a>
</g>
</g>
<!-- kernel8 -->
<g id="node22" class="node">
<title>kernel8</title>
<g id="a_node22"><a xlink:title="/home/erie_lab/Documents/kxz365/Github_repos/3D&#45;DiffXPBD&#45;Warp/utils/DiffXPBD.py:708 (accumulate_global_local_updates_tape)">
<text text-anchor="middle" x="376.69" y="-584.8" font-family="Helvetica,Arial,sans-serif" font-size="14.00">kernel8</text>
</a>
</g>
</g>
<!-- arr12918938112&#45;&gt;kernel8 -->
<g id="edge20" class="edge">
<title>arr12918938112&#45;&gt;kernel8:in_0</title>
<g id="a_edge20"><a xlink:title=" ">
<path fill="none" stroke="black" d="M124.91,-622.62C149.14,-613.98 192.59,-603.9 230.19,-597.5 267.4,-591.16 310.32,-586.13 339.85,-584.76"/>
<polygon fill="black" stroke="black" points="340.21,-588.25 350.09,-584.43 339.98,-581.26 340.21,-588.25"/>
</a>
</g>
</g>
<!-- arr12918938112&#45;&gt;kernel8 -->
<g id="edge22" class="edge">
<title>arr12918938112&#45;&gt;kernel8:in_6</title>
<g id="a_edge22"><a xlink:title=" ">
<path fill="none" stroke="black" d="M148.98,-631.11C172.8,-626.67 203.02,-620.13 230.19,-615.5 268.4,-608.99 312.65,-603.86 342.22,-598.87"/>
<polygon fill="black" stroke="black" points="343.19,-602.25 352.41,-597.04 341.95,-595.36 343.19,-602.25"/>
</a>
</g>
</g>
<!-- kernel6 -->
<g id="node17" class="node">
<title>kernel6</title>
<g id="a_node17"><a xlink:title="/home/erie_lab/Documents/kxz365/Github_repos/3D&#45;DiffXPBD&#45;Warp/utils/DiffXPBD.py:692 (predictor_step_tape)">
<polygon fill="#888888" stroke="transparent" points="310.19,-802.5 310.19,-858.5 443.19,-858.5 443.19,-802.5 310.19,-802.5"/>
<polygon fill="#ffffff" fill-opacity="0.666667" stroke="transparent" points="312.69,-831.5 312.69,-856.5 441.69,-856.5 441.69,-831.5 312.69,-831.5"/>
<polygon fill="none" stroke="black" points="312.69,-831.5 312.69,-856.5 441.69,-856.5 441.69,-831.5 312.69,-831.5"/>
<text text-anchor="start" x="318.69" y="-841.3" font-family="Helvetica,Arial,sans-serif" font-weight="bold" font-size="14.00">clear_vec2_kernel</text>
<polygon fill="#bbbbbb" stroke="transparent" points="312.69,-804.5 312.69,-829.5 385.69,-829.5 385.69,-804.5 312.69,-804.5"/>
<polygon fill="none" stroke="black" points="312.69,-804.5 312.69,-829.5 385.69,-829.5 385.69,-804.5 312.69,-804.5"/>
<text text-anchor="start" x="317.69" y="-813.3" font-family="Helvetica,Arial,sans-serif" font-size="14.00">arr</text>
</a>
</g>
</g>
<!-- arr12919217664 -->
<g id="node18" class="node">
<title>arr12919217664</title>
<g id="a_node18"><a xlink:title="Array arr / ptr=12919217664, shape=(1273,), dtype=warp._src.types.vec2f, requires_grad=True">
<ellipse fill="#76b900" stroke="black" cx="105.1" cy="-719.5" rx="17.86" ry="12.04"/>
<text text-anchor="middle" x="105.1" y="-715.8" font-family="Helvetica,Arial,sans-serif" font-size="14.00">arr</text>
</a>
</g>
</g>
<!-- arr12919217664&#45;&gt;kernel6 -->
<g id="edge15" class="edge">
<title>arr12919217664&#45;&gt;kernel6:in_0</title>
<g id="a_edge15"><a xlink:title=" ">
<path fill="none" stroke="black" d="M116.83,-728.8C144.8,-752.08 223.2,-811.36 301.63,-816.19"/>
<polygon fill="black" stroke="black" points="301.59,-819.69 311.69,-816.5 301.8,-812.69 301.59,-819.69"/>
</a>
</g>
</g>
<!-- arr12919217664&#45;&gt;kernel7 -->
<g id="edge17" class="edge">
<title>arr12919217664&#45;&gt;kernel7:in_4</title>
<g id="a_edge17"><a xlink:title=" ">
<path fill="none" stroke="black" d="M122.88,-718.93C141.83,-717.53 172.8,-712.84 194.19,-697.5 218.24,-680.26 205.14,-657.25 230.19,-641.5 263.2,-620.75 308.8,-618.39 340.11,-619.84"/>
<polygon fill="black" stroke="black" points="339.94,-623.33 350.14,-620.45 340.37,-616.35 339.94,-623.33"/>
</a>
</g>
</g>
<!-- kernel9 -->
<g id="node23" class="node">
<title>kernel9</title>
<g id="a_node23"><a xlink:title="/home/erie_lab/Documents/kxz365/Github_repos/3D&#45;DiffXPBD&#45;Warp/utils/DiffXPBD.py:722 (accumulate_global_local_updates_tape)">
<polygon fill="#888888" stroke="transparent" points="256.69,-651.5 256.69,-761.5 496.69,-761.5 496.69,-651.5 256.69,-651.5"/>
<polygon fill="#ffffff" fill-opacity="0.666667" stroke="transparent" points="258.69,-734.5 258.69,-759.5 494.69,-759.5 494.69,-734.5 258.69,-734.5"/>
<polygon fill="none" stroke="black" points="258.69,-734.5 258.69,-759.5 494.69,-759.5 494.69,-734.5 258.69,-734.5"/>
<text text-anchor="start" x="264.69" y="-744.3" font-family="Helvetica,Arial,sans-serif" font-weight="bold" font-size="14.00">update_lambda_from_local_kernel</text>
<polygon fill="#bbbbbb" stroke="transparent" points="258.69,-707.5 258.69,-732.5 435.69,-732.5 435.69,-707.5 258.69,-707.5"/>
<polygon fill="none" stroke="black" points="258.69,-707.5 258.69,-732.5 435.69,-732.5 435.69,-707.5 258.69,-707.5"/>
<text text-anchor="start" x="263.69" y="-716.3" font-family="Helvetica,Arial,sans-serif" font-size="14.00">lambda_prev</text>
<polygon fill="#bbbbbb" stroke="transparent" points="258.69,-680.5 258.69,-705.5 435.69,-705.5 435.69,-680.5 258.69,-680.5"/>
<polygon fill="none" stroke="black" points="258.69,-680.5 258.69,-705.5 435.69,-705.5 435.69,-680.5 258.69,-680.5"/>
<text text-anchor="start" x="263.69" y="-689.3" font-family="Helvetica,Arial,sans-serif" font-size="14.00">delta_lambda_local</text>
<polygon fill="#bbbbbb" stroke="transparent" points="258.69,-653.5 258.69,-678.5 435.69,-678.5 435.69,-653.5 258.69,-653.5"/>
<polygon fill="none" stroke="black" points="258.69,-653.5 258.69,-678.5 435.69,-678.5 435.69,-653.5 258.69,-653.5"/>
<text text-anchor="start" x="263.69" y="-662.3" font-family="Helvetica,Arial,sans-serif" font-size="14.00">lambda_next</text>
</a>
</g>
</g>
<!-- arr12919217664&#45;&gt;kernel9 -->
<g id="edge23" class="edge">
<title>arr12919217664&#45;&gt;kernel9:in_0</title>
<g id="a_edge23"><a xlink:title=" ">
<path fill="none" stroke="black" d="M122.92,-719.68C148.98,-719.95 200.97,-720.43 247.54,-720.49"/>
<polygon fill="black" stroke="black" points="247.69,-723.99 257.69,-720.5 247.69,-716.99 247.69,-723.99"/>
</a>
</g>
</g>
<!-- arr12919217664&#45;&gt;kernel9 -->
<g id="edge25" class="edge">
<title>arr12919217664&#45;&gt;kernel9:in_2</title>
<g id="a_edge25"><a xlink:title=" ">
<path fill="none" stroke="black" d="M122.33,-716.57C140.26,-713.08 169.81,-706.56 194.19,-697.5 220.34,-687.78 225.18,-670.28 247.7,-666.32"/>
<polygon fill="black" stroke="black" points="248.01,-669.8 257.69,-665.5 247.44,-662.82 248.01,-669.8"/>
</a>
</g>
</g>
<!-- arr12919647744 -->
<g id="node20" class="node">
<title>arr12919647744</title>
<g id="a_node20"><a xlink:title="Array delta_x_local / ptr=12919647744, shape=(1273,), dtype=warp._src.types.vector.&lt;locals&gt;.vec_t, requires_grad=True">
<ellipse fill="#76b900" stroke="black" cx="105.1" cy="-591.5" rx="61.54" ry="12.04"/>
<text text-anchor="middle" x="105.1" y="-587.8" font-family="Helvetica,Arial,sans-serif" font-size="14.00">delta_x_local</text>
</a>
</g>
</g>
<!-- arr12919647744&#45;&gt;kernel7 -->
<g id="edge18" class="edge">
<title>arr12919647744&#45;&gt;kernel7:in_7</title>
<g id="a_edge18"><a xlink:title=" ">
<path fill="none" stroke="black" d="M157.71,-597.79C180,-600.49 206.38,-603.67 230.19,-606.5 267.53,-610.94 310.27,-615.92 339.72,-619.34"/>
<polygon fill="black" stroke="black" points="339.59,-622.85 349.93,-620.52 340.4,-615.89 339.59,-622.85"/>
</a>
</g>
</g>
<!-- arr12919647744&#45;&gt;kernel8 -->
<g id="edge21" class="edge">
<title>arr12919647744&#45;&gt;kernel8:in_5</title>
<g id="a_edge21"><a xlink:title=" ">
<path fill="none" stroke="black" d="M166.6,-590.83C219.81,-590.23 295.48,-589.39 339.69,-588.9"/>
<polygon fill="black" stroke="black" points="340,-592.4 349.96,-588.79 339.92,-585.4 340,-592.4"/>
</a>
</g>
</g>
<!-- arr12922105344 -->
<g id="node21" class="node">
<title>arr12922105344</title>
<g id="a_node21"><a xlink:title="Array delta_lambda_local / ptr=12922105344, shape=(1273,), dtype=warp._src.types.vec2f, requires_grad=True">
<ellipse fill="#76b900" stroke="black" cx="105.1" cy="-676.5" rx="89.19" ry="12.04"/>
<text text-anchor="middle" x="105.1" y="-672.8" font-family="Helvetica,Arial,sans-serif" font-size="14.00">delta_lambda_local</text>
</a>
</g>
</g>
<!-- arr12922105344&#45;&gt;kernel7 -->
<g id="edge19" class="edge">
<title>arr12922105344&#45;&gt;kernel7:in_8</title>
<g id="a_edge19"><a xlink:title=" ">
<path fill="none" stroke="black" d="M151.15,-666.18C165.04,-662.76 180.32,-658.73 194.19,-654.5 210.46,-649.54 213.65,-645.46 230.19,-641.5 267.01,-632.69 310.16,-628.04 339.86,-625.69"/>
<polygon fill="black" stroke="black" points="340.44,-629.16 350.15,-624.93 339.92,-622.18 340.44,-629.16"/>
</a>
</g>
</g>
<!-- arr12922105344&#45;&gt;kernel9 -->
<g id="edge24" class="edge">
<title>arr12922105344&#45;&gt;kernel9:in_1</title>
<g id="a_edge24"><a xlink:title=" ">
<path fill="none" stroke="black" d="M164.25,-685.53C189.32,-688.76 219.29,-691.77 247.42,-692.38"/>
<polygon fill="black" stroke="black" points="247.65,-695.89 257.69,-692.5 247.73,-688.89 247.65,-695.89"/>
</a>
</g>
</g>
<!-- kernel10 -->
<g id="node24" class="node">
<title>kernel10</title>
<g id="a_node24"><a xlink:title="/home/erie_lab/Documents/kxz365/Github_repos/3D&#45;DiffXPBD&#45;Warp/utils/DiffXPBD.py:730 (clear_loss)">
<polygon fill="#888888" stroke="transparent" points="305.69,-1323.5 305.69,-1379.5 447.69,-1379.5 447.69,-1323.5 305.69,-1323.5"/>
<polygon fill="#ffffff" fill-opacity="0.666667" stroke="transparent" points="307.69,-1352.5 307.69,-1377.5 445.69,-1377.5 445.69,-1352.5 307.69,-1352.5"/>
<polygon fill="none" stroke="black" points="307.69,-1352.5 307.69,-1377.5 445.69,-1377.5 445.69,-1352.5 307.69,-1352.5"/>
<text text-anchor="start" x="313.69" y="-1362.3" font-family="Helvetica,Arial,sans-serif" font-weight="bold" font-size="14.00">clear_scalar_kernel</text>
<polygon fill="#bbbbbb" stroke="transparent" points="307.69,-1325.5 307.69,-1350.5 384.69,-1350.5 384.69,-1325.5 307.69,-1325.5"/>
<polygon fill="none" stroke="black" points="307.69,-1325.5 307.69,-1350.5 384.69,-1350.5 384.69,-1325.5 307.69,-1325.5"/>
<text text-anchor="start" x="312.69" y="-1334.3" font-family="Helvetica,Arial,sans-serif" font-size="14.00">arr</text>
</a>
</g>
</g>
<!-- arr12918769152 -->
<g id="node25" class="node">
<title>arr12918769152</title>
<g id="a_node25"><a xlink:title="Array loss / ptr=12918769152, shape=(1,), dtype=warp._src.types.float32, requires_grad=True">
<ellipse fill="#76b900" stroke="black" cx="105.1" cy="-1367.5" rx="23.17" ry="12.04"/>
<text text-anchor="middle" x="105.1" y="-1363.8" font-family="Helvetica,Arial,sans-serif" font-size="14.00">loss</text>
</a>
</g>
</g>
<!-- arr12918769152&#45;&gt;kernel10 -->
<g id="edge26" class="edge">
<title>arr12918769152&#45;&gt;kernel10:in_0</title>
<g id="a_edge26"><a xlink:title=" ">
<path fill="none" stroke="black" d="M126.45,-1362.41C160.69,-1354.29 232.36,-1339.14 296.47,-1337.62"/>
<polygon fill="black" stroke="black" points="296.73,-1341.12 306.69,-1337.5 296.65,-1334.12 296.73,-1341.12"/>
</a>
</g>
</g>
<!-- kernel11 -->
<g id="node26" class="node">
<title>kernel11</title>
<g id="a_node26"><a xlink:title="/home/erie_lab/Documents/kxz365/Github_repos/3D&#45;DiffXPBD&#45;Warp/utils/DiffXPBD.py:735 (accumulate_loss)">
<polygon fill="#888888" stroke="transparent" points="299.19,-1399.5 299.19,-1509.5 454.19,-1509.5 454.19,-1399.5 299.19,-1399.5"/>
<polygon fill="#ffffff" fill-opacity="0.666667" stroke="transparent" points="301.69,-1482.5 301.69,-1507.5 452.69,-1507.5 452.69,-1482.5 301.69,-1482.5"/>
<polygon fill="none" stroke="black" points="301.69,-1482.5 301.69,-1507.5 452.69,-1507.5 452.69,-1482.5 301.69,-1482.5"/>
<text text-anchor="start" x="307.69" y="-1492.3" font-family="Helvetica,Arial,sans-serif" font-weight="bold" font-size="14.00">compute_loss_kernel</text>
<polygon fill="#bbbbbb" stroke="transparent" points="301.69,-1455.5 301.69,-1480.5 401.69,-1480.5 401.69,-1455.5 301.69,-1455.5"/>
<polygon fill="none" stroke="black" points="301.69,-1455.5 301.69,-1480.5 401.69,-1480.5 401.69,-1455.5 301.69,-1455.5"/>
<text text-anchor="start" x="306.69" y="-1464.3" font-family="Helvetica,Arial,sans-serif" font-size="14.00">x_final</text>
<polygon fill="#bbbbbb" stroke="transparent" points="301.69,-1428.5 301.69,-1453.5 401.69,-1453.5 401.69,-1428.5 301.69,-1428.5"/>
<polygon fill="none" stroke="black" points="301.69,-1428.5 301.69,-1453.5 401.69,-1453.5 401.69,-1428.5 301.69,-1428.5"/>
<text text-anchor="start" x="306.69" y="-1437.3" font-family="Helvetica,Arial,sans-serif" font-size="14.00">x_target</text>
<polygon fill="#bbbbbb" stroke="transparent" points="301.69,-1401.5 301.69,-1426.5 401.69,-1426.5 401.69,-1401.5 301.69,-1401.5"/>
<polygon fill="none" stroke="black" points="301.69,-1401.5 301.69,-1426.5 401.69,-1426.5 401.69,-1401.5 301.69,-1401.5"/>
<text text-anchor="start" x="306.69" y="-1410.3" font-family="Helvetica,Arial,sans-serif" font-size="14.00">loss</text>
</a>
</g>
</g>
<!-- arr12918769152&#45;&gt;kernel11 -->
<g id="edge28" class="edge">
<title>arr12918769152&#45;&gt;kernel11:in_2</title>
<g id="a_edge28"><a xlink:title=" ">
<path fill="none" stroke="black" d="M124,-1374.69C156.18,-1386.97 226.41,-1410.91 290.47,-1413.3"/>
<polygon fill="black" stroke="black" points="290.63,-1416.81 300.69,-1413.5 290.76,-1409.81 290.63,-1416.81"/>
</a>
</g>
</g>
<!-- arr12922558464 -->
<g id="node27" class="node">
<title>arr12922558464</title>
<g id="a_node27"><a xlink:title="Array x_target / ptr=12922558464, shape=(522,), dtype=warp._src.types.vec3f, requires_grad=False">
<ellipse fill="lightgray" stroke="black" cx="105.1" cy="-1440.5" rx="40.11" ry="12.04"/>
<text text-anchor="middle" x="105.1" y="-1436.8" font-family="Helvetica,Arial,sans-serif" font-size="14.00">x_target</text>
</a>
</g>
</g>
<!-- arr12922558464&#45;&gt;kernel11 -->
<g id="edge27" class="edge">
<title>arr12922558464&#45;&gt;kernel11:in_1</title>
<g id="a_edge27"><a xlink:title=" ">
<path fill="none" stroke="black" d="M145.6,-1440.5C182.46,-1440.5 239.31,-1440.5 290.53,-1440.5"/>
<polygon fill="black" stroke="black" points="290.69,-1444 300.69,-1440.5 290.69,-1437 290.69,-1444"/>
</a>
</g>
</g>
</g>
</svg>
